<svg xmlns="http://www.w3.org/2000/svg" width="402" height="402" version="1.1"><path fill="#000001" d="M0 0 C132.66 0 265.32 0 402 0 C402 132.66 402 265.32 402 402 C269.34 402 136.68 402 0 402 C0 269.34 0 136.68 0 0 Z" transform="translate(0,0)"/><path fill="#95A6F8" d="M0 0 C2.36301968 7.77861516 2.97619426 15.3267932 0 23 C-8.44801261 35.72477241 -21.6550018 46.00809056 -33.18017578 55.86450195 C-33.89544434 56.47962646 -34.61071289 57.09475098 -35.34765625 57.72851562 C-35.99871338 58.28333618 -36.64977051 58.83815674 -37.32055664 59.40979004 C-39.22252892 61.09243258 -39.22252892 61.09243258 -41 64 C-40.443125 64.226875 -39.88625 64.45375 -39.3125 64.6875 C-35.50548626 66.84823753 -32.78737813 70.09332215 -29.9375 73.375 C-28.16572934 75.20114455 -28.16572934 75.20114455 -26 75.0625 C-23.2195558 73.58538902 -21.94506189 71.48535685 -20 69 C-18.05256606 67.20719064 -16.04727079 65.49637216 -14.03125 63.78125 C-12.13170248 62.11549294 -10.37589097 60.38205336 -8.625 58.5625 C-6 56 -6 56 -4 56 C-2.51053853 75.57177833 -2.51053853 75.57177833 -6.0390625 81.32421875 C-8.5625 83.625 -8.5625 83.625 -11.12890625 85.4140625 C-12.05509766 86.19910156 -12.05509766 86.19910156 -13 87 C-13.34334025 89.02739822 -13.34334025 89.02739822 -12 91 C-10.56068732 92.16673122 -9.11719222 93.32908337 -7.64355469 94.45214844 C-3.59534284 97.68005863 -0.486483 100.57769374 0.56396484 105.80810547 C1.06324472 112.55423883 0.66649258 119.27696973 0 126 C-4.13625009 124.36934355 -6.89956599 121.36776548 -9.96191406 118.26513672 C-10.84061157 117.38687729 -10.84061157 117.38687729 -11.73706055 116.49087524 C-13.66802839 114.55851644 -15.59181947 112.61917484 -17.515625 110.6796875 C-18.85468611 109.33689544 -20.19419009 107.99454487 -21.53411865 106.65261841 C-25.05664429 103.12246283 -28.57312203 99.58634194 -32.08837891 96.0489502 C-35.67768551 92.43917149 -39.27267256 88.83505985 -42.8671875 85.23046875 C-49.91703318 78.15918442 -56.96050337 71.08158587 -64 64 C-62.36862306 59.87467721 -59.38511914 57.10362738 -56.296875 54.03808594 C-55.42343445 53.15938843 -55.42343445 53.15938843 -54.53234863 52.26293945 C-52.6098942 50.33169543 -50.68023189 48.40784337 -48.75 46.484375 C-47.41214187 45.14516979 -46.07458076 43.80566779 -44.73730469 42.46588135 C-41.93618463 39.66181409 -39.13148185 36.86139336 -36.32421875 34.06347656 C-32.71912923 30.46980329 -29.12312101 26.86719749 -25.52972412 23.26183701 C-22.77105754 20.49595976 -20.00766543 17.73484361 -17.24279785 14.97516632 C-15.91439817 13.64810419 -14.58749189 12.31954547 -13.26208496 10.98949432 C-11.41388198 9.1362368 -9.55943234 7.28947076 -7.703125 5.44433594 C-7.15241333 4.88957581 -6.60170166 4.33481567 -6.03430176 3.76324463 C-2.22853116 0 -2.22853116 0 0 0 Z" transform="translate(188,41)"/><path fill="#95A6F8" d="M0 0 C3.97526224 1.6006756 6.64020304 4.37143556 9.59472656 7.36767578 C10.14151062 7.91416779 10.68829468 8.46065979 11.25164795 9.02371216 C13.05275649 10.82621093 14.84668247 12.63568396 16.640625 14.4453125 C17.89000495 15.69842367 19.13982801 16.95109319 20.39007568 18.20333862 C23.67586872 21.49675955 26.9556107 24.79614291 30.23413086 28.09680176 C33.58214253 31.46528994 36.93583907 34.8281076 40.2890625 38.19140625 C46.86495296 44.78873176 53.43446516 51.39236983 60 58 C58.90936512 61.27190463 58.27545805 61.83277005 55.69506836 63.93383789 C50.36290006 68.46243454 45.47786438 73.40942072 40.55453682 78.37029839 C38.84639885 80.09134685 37.13502731 81.80912253 35.4228363 83.52613831 C31.79987947 87.16043205 28.18091958 90.79868955 24.5625 94.4375 C20.34309047 98.6805119 16.1220579 102.92188329 11.89683342 107.1591053 C10.20794716 108.8544892 8.52208825 110.55284508 6.83631897 112.25132751 C5.81102897 113.28024641 4.78560035 114.3090272 3.76000977 115.33764648 C2.41387352 116.69163795 2.41387352 116.69163795 1.0405426 118.07298279 C-1 120 -1 120 -2 120 C-2.23382288 116.14686872 -2.37489753 112.29557088 -2.5 108.4375 C-2.56703125 107.35146484 -2.6340625 106.26542969 -2.703125 105.14648438 C-2.89724812 97.1631711 -2.89724812 97.1631711 -0.30224609 93.79907227 C1.8203125 91.96875 1.8203125 91.96875 3.93798828 90.47851562 C6.7429679 88.46727284 8.65444299 85.97829173 10.7734375 83.28515625 C11.38058594 82.64900391 11.38058594 82.64900391 12 82 C12.66 82 13.32 82 14 82 C14.495 80.515 14.495 80.515 15 79 C16.48828125 77.5703125 16.48828125 77.5703125 18.3125 76.125 C21.31055119 73.66758099 23.58660876 71.03908527 26 68 C26.66 68 27.32 68 28 68 C28.268125 67.360625 28.53625 66.72125 28.8125 66.0625 C30 64 30 64 33 63 C33 62.34 33 61.68 33 61 C33.66 60.67 34.32 60.34 35 60 C33.46751951 56.41597305 31.3325399 53.97149866 28.625 51.1875 C27.85414063 50.37667969 27.08328125 49.56585938 26.2890625 48.73046875 C24.22450774 46.77069673 24.22450774 46.77069673 22.109375 47.15332031 C19.40401755 48.23922073 17.97776807 49.71504217 15.9609375 51.81640625 C14.84332031 52.96206055 14.84332031 52.96206055 13.703125 54.13085938 C12.93484375 54.93330078 12.1665625 55.73574219 11.375 56.5625 C9.84568381 58.15151541 8.31204978 59.73639034 6.7734375 61.31640625 C6.09716309 62.02224854 5.42088867 62.72809082 4.72412109 63.45532227 C3 65 3 65 1 65 C0.76549022 61.33443177 0.62488779 57.67080904 0.5 54 C0.43296875 52.97003906 0.3659375 51.94007813 0.296875 50.87890625 C0.18130109 46.34263036 0.11355821 43.23720585 2.81640625 39.46484375 C4.79219149 37.48905851 6.78384352 35.69897002 9 34 C7.62068408 30.77522454 6.12253898 29.16147758 3.40234375 26.99609375 C0.17428426 23.86177101 -0.51349129 21.76549456 -0.68359375 17.28515625 C-0.63747535 15.20982841 -0.55457065 13.13503637 -0.4375 11.0625 C-0.40591797 9.99708984 -0.37433594 8.93167969 -0.34179688 7.83398438 C-0.25973625 5.21976725 -0.14502211 2.6113542 0 0 Z" transform="translate(200,158)"/><path fill="#95A5F6" d="M0 0 C3.17748743 1.40613879 5.33048818 3.07423269 7.79060364 5.51644897 C8.89906647 6.60994911 8.89906647 6.60994911 10.02992249 7.72554016 C10.83062668 8.52557968 11.63133087 9.3256192 12.45629883 10.14990234 C13.73242538 11.41354362 13.73242538 11.41354362 15.03433228 12.70271301 C17.36235318 15.01077634 19.68573343 17.32337615 22.00633836 19.63889265 C23.45597937 21.08488827 24.90690945 22.52957758 26.35828209 23.97383499 C31.41994701 29.01102613 36.47588432 34.05389359 41.52709961 39.1015625 C46.23918879 43.81000951 50.96426928 48.5051408 55.69539434 53.19445264 C59.75608178 57.22050173 63.80714822 61.25606385 67.85090274 65.29911959 C70.26671602 67.71413839 72.68637574 70.12497954 75.11594582 72.52616501 C77.81942006 75.20294057 80.50681706 77.89488433 83.19067383 80.59130859 C84.00149918 81.38729965 84.81232452 82.18329071 85.64772034 83.00340271 C86.37259644 83.73804245 87.09747253 84.47268219 87.84431458 85.22958374 C88.48160901 85.86486685 89.11890345 86.50014996 89.77550983 87.15468407 C91 89 91 89 90.82638073 91.08819008 C89.60210173 93.92052711 87.6533167 95.62780936 85.4375 97.75 C84.19806641 98.94882813 84.19806641 98.94882813 82.93359375 100.171875 C81.97646484 101.07679688 81.97646484 101.07679688 81 102 C78.07267212 100.67011623 75.92271362 99.20237773 73.59576416 96.99104309 C72.94237564 96.37364258 72.28898712 95.75624207 71.61579895 95.12013245 C70.91017319 94.44345016 70.20454742 93.76676788 69.47753906 93.06958008 C68.72593002 92.35520782 67.97432098 91.64083557 67.19993591 90.90481567 C60.26526863 84.29373996 53.3989391 77.61136578 46.55281448 70.90875721 C41.95934775 66.41268942 37.34665258 61.94148677 32.67822266 57.52319336 C28.15436254 53.2407893 23.69078096 48.90316678 19.26226044 44.52231407 C17.57399102 42.87122064 15.86600823 41.2400156 14.13782501 39.63074684 C-0.04156645 26.3824386 -0.04156645 26.3824386 -1.02502441 16.69711304 C-1.20348818 11.07575944 -0.81468355 5.5615709 0 0 Z" transform="translate(195,99)"/><path fill="#95A5F5" d="M0 0 C2.94988695 1.3372973 5.10171107 2.82262929 7.44219971 5.0536499 C8.10400238 5.68090973 8.76580505 6.30816956 9.44766235 6.95443726 C10.52012711 7.98584335 10.52012711 7.98584335 11.61425781 9.03808594 C12.75630173 10.12668411 12.75630173 10.12668411 13.92141724 11.23727417 C20.9441066 17.95070457 27.90090048 24.73282009 34.83833694 31.53420639 C39.49355241 36.09719877 44.16736135 40.63649129 48.89453125 45.125 C53.47441106 49.4745161 57.99690683 53.87684303 62.48555756 58.32038116 C64.19702386 59.99648121 65.92735281 61.65356107 67.67697906 63.28978729 C82.74787046 77.4288554 82.74787046 77.4288554 83.14185715 89.16809464 C83.02164166 93.48951018 82.66845378 97.72897016 82 102 C78.79177828 100.58607352 76.64749941 98.89506369 74.17816162 96.41867065 C73.43221741 95.67547577 72.68627319 94.93228088 71.91772461 94.16656494 C70.70499878 92.94305328 70.70499878 92.94305328 69.46777344 91.69482422 C68.17942596 90.40691483 68.17942596 90.40691483 66.86505127 89.09298706 C64.51460664 86.74138856 62.16868541 84.38544268 59.82466412 82.02745199 C57.372552 79.56283009 54.91476793 77.10387775 52.45758057 74.64431763 C47.8071181 69.98764113 43.16177703 65.32589026 38.51825547 60.66229355 C33.23080081 55.35247752 27.93766016 50.0483452 22.64403486 44.74468207 C11.75635189 33.83609884 0.87582949 22.92040194 -10 12 C-8.39464713 8.58940597 -6.59481099 6.38207516 -3.875 3.75 C-3.15054688 3.04359375 -2.42609375 2.3371875 -1.6796875 1.609375 C-1.12539062 1.07828125 -0.57109375 0.5471875 0 0 Z" transform="translate(107,120)"/><path fill="#94A4F4" d="M0 0 C3.88757032 1.59108401 6.55408511 4.23835508 9.48706055 7.14892578 C10.02248474 7.67281387 10.55790894 8.19670197 11.10955811 8.73646545 C12.87435254 10.46702212 14.63121789 12.20533162 16.38671875 13.9453125 C16.98859324 14.54028408 17.59046772 15.13525566 18.21058083 15.74825668 C21.39456319 18.89643721 24.57237941 22.05069513 27.74536133 25.20996094 C31.01883261 28.46687492 34.31270997 31.70230186 37.61178875 34.93324471 C40.14999438 37.42662497 42.67242229 39.93552447 45.19086647 42.44884872 C46.39826783 43.64836686 47.61153035 44.8420159 48.83075523 46.02951431 C50.53787445 47.69509995 52.2213945 49.38156146 53.90112305 51.07470703 C54.65773979 51.79828651 54.65773979 51.79828651 55.42964172 52.53648376 C60.28187443 57.52117608 60.14971578 62.83637987 60.09765625 69.5 C60.09282227 70.61181641 60.09282227 70.61181641 60.08789062 71.74609375 C60.07532227 72.86177734 60.07532227 72.86177734 60.0625 74 C60.05798828 74.77472656 60.05347656 75.54945313 60.04882812 76.34765625 C60.03719758 78.23180524 60.01926906 80.11591365 60 82 C55.27533383 78.04603945 50.77827861 73.93821496 46.40625 69.59912109 C45.78914658 68.99019516 45.17204315 68.38126923 44.53623962 67.75389099 C42.52117849 65.76339249 40.51005726 63.76898836 38.5 61.7734375 C37.81011993 61.08888111 37.12023987 60.40432472 36.40945435 59.6990242 C32.76993136 56.08608478 29.13399061 52.46957959 25.50048828 48.85058594 C22.49272674 45.85624205 19.47783242 42.8693646 16.45654297 39.88867188 C12.79998612 36.28122946 9.15566635 32.66185569 5.52001953 29.03334427 C4.1334967 27.65355442 2.74270674 26.27803908 1.34765625 24.9068718 C-0.59387093 22.99674727 -2.5192573 21.07168544 -4.44140625 19.14208984 C-5.31394798 18.29415611 -5.31394798 18.29415611 -6.20411682 17.42909241 C-7.77563477 15.83236694 -7.77563477 15.83236694 -10 13 C-9.53051645 8.8898365 -7.36550824 7.05428958 -4.4375 4.25 C-3.61121094 3.45078125 -2.78492187 2.6515625 -1.93359375 1.828125 C-1.29550781 1.22484375 -0.65742187 0.6215625 0 0 Z" transform="translate(128,200)"/><path fill="#F2F2F2" d="M0 0 C1.18432617 -0.00386719 1.18432617 -0.00386719 2.39257812 -0.0078125 C8.13765739 0.08850065 11.63538603 1.12297994 15.73828125 5.359375 C17.90727905 9.2310714 17.10904353 13.15423052 16.9375 17.5 C12.9775 17.5 9.0175 17.5 4.9375 17.5 C4.6075 15.52 4.2775 13.54 3.9375 11.5 C1.6275 11.17 -0.6825 10.84 -3.0625 10.5 C-3.0625 15.12 -3.0625 19.74 -3.0625 24.5 C-1.020625 24.438125 1.02125 24.37625 3.125 24.3125 C8.08810518 24.16210287 10.90015867 24.53832688 14.9375 27.5 C18.56707011 31.12957011 17.30701516 36.9063143 17.3125 41.8125 C17.33699219 42.95396484 17.36148438 44.09542969 17.38671875 45.27148438 C17.41612729 53.65781964 17.41612729 53.65781964 15.1015625 57.73046875 C10.82704599 61.22569615 6.30754983 60.71664515 1.0625 60.75 C0.25941406 60.770625 -0.54367188 60.79125 -1.37109375 60.8125 C-6.06354931 60.84342228 -9.30910775 60.64990566 -13.0625 57.5 C-13.5575 56.015 -13.5575 56.015 -14.0625 54.5 C-14.7225 54.5 -15.3825 54.5 -16.0625 54.5 C-16.0625 50.54 -16.0625 46.58 -16.0625 42.5 C-11.7725 42.5 -7.4825 42.5 -3.0625 42.5 C-3.0625 45.14 -3.0625 47.78 -3.0625 50.5 C-0.4225 50.5 2.2175 50.5 4.9375 50.5 C4.9375 45.88 4.9375 41.26 4.9375 36.5 C1.8746875 36.5928125 1.8746875 36.5928125 -1.25 36.6875 C-6.18461679 36.83703384 -9.08672887 36.52949523 -13.0625 33.5 C-16.22957328 28.74939008 -15.51215205 23.71362251 -15.5625 18.125 C-15.60375 16.98804688 -15.645 15.85109375 -15.6875 14.6796875 C-15.76192748 6.75316118 -15.76192748 6.75316118 -14.01000977 3.61425781 C-9.97687011 -0.30384847 -5.23997273 -0.18913765 0 0 Z" transform="translate(116.0625,286.5)"/><path fill="#95A5F6" d="M0 0 C4.26183755 2.13091878 7.03529551 4.76769404 10.32910156 8.10205078 C10.95391418 8.72657135 11.57872681 9.35109192 12.22247314 9.99453735 C14.28330069 12.0567565 16.33695653 14.1259659 18.390625 16.1953125 C19.81936725 17.62778547 21.24855215 19.05981707 22.67816162 20.49142456 C26.43742017 24.25831484 30.19063357 28.03117293 33.94262695 31.80529785 C37.77322817 35.65636731 41.60950595 39.50177271 45.4453125 43.34765625 C52.96911378 50.89289934 60.48654202 58.44445811 68 66 C64.32167983 70.52615993 60.58913637 74.39424999 56 78 C55.32792511 77.3257045 54.65585022 76.651409 53.96340942 75.9566803 C47.63869903 69.61172462 41.31136984 63.26939099 34.98144722 56.92963505 C31.72702548 53.66998802 28.47354324 50.40941451 25.22216797 47.14672852 C22.08615334 43.99987249 18.94772363 40.85544412 15.80758286 37.71270561 C14.60818473 36.51145551 13.40966912 35.30932361 12.21203995 34.10630989 C10.53836062 32.42540356 8.86161053 30.7476203 7.18408203 29.07055664 C6.6863327 28.56921204 6.18858337 28.06786743 5.67575073 27.55133057 C3.08556841 24.94718915 3.08556841 24.94718915 0 23 C0 15.41 0 7.82 0 0 Z" transform="translate(198,43)"/><path fill="#F4F4F4" d="M0 0 C1.26360352 -0.03673828 1.26360352 -0.03673828 2.55273438 -0.07421875 C8.23565502 -0.10087827 11.33709239 0.65398364 15.6875 4.375 C17.97732938 8.95465877 16.9990665 15.6909544 17.03759766 20.77758789 C17.05414525 22.37897283 17.08142009 23.98028427 17.11962891 25.58129883 C17.17452731 27.89443116 17.19628918 30.20583436 17.2109375 32.51953125 C17.23360687 33.23115921 17.25627625 33.94278717 17.27963257 34.67597961 C17.26295316 38.61971715 16.8182725 40.21594341 14.27978516 43.3034668 C9.88921396 46.81203683 6.31862604 46.59073642 0.875 46.625 C0.06740234 46.645625 -0.74019531 46.66625 -1.57226562 46.6875 C-6.34388049 46.71876365 -9.4171554 46.43191805 -13.3125 43.375 C-15.78248268 40.90501732 -15.56764631 39.46625095 -15.61604309 36.09281921 C-15.61513168 35.37511856 -15.61422028 34.65741791 -15.61328125 33.91796875 C-15.61756638 33.17799149 -15.6218515 32.43801422 -15.62626648 31.6756134 C-15.6320142 30.10789005 -15.63250678 28.54014002 -15.62817383 26.97241211 C-15.62502575 24.58205081 -15.648424 22.19294147 -15.67382812 19.80273438 C-15.67610239 18.27864739 -15.67680402 16.75455709 -15.67578125 15.23046875 C-15.684991 14.51884079 -15.69420074 13.80721283 -15.70368958 13.07402039 C-15.66290933 8.66213865 -15.03927007 5.87033614 -12.3125 2.375 C-8.18119677 -0.37920215 -4.85474781 0.00732792 0 0 Z" transform="translate(283.3125,300.625)"/><path fill="#F3F3F3" d="M0 0 C0.825 -0.00257813 1.65 -0.00515625 2.5 -0.0078125 C3.35851562 -0.00007813 4.21703125 0.00765625 5.1015625 0.015625 C6.37773437 0.00402344 6.37773437 0.00402344 7.6796875 -0.0078125 C16.04255807 0.01824006 16.04255807 0.01824006 19.7265625 2.265625 C21.60287183 5.26179993 21.96678916 7.52794567 21.921875 11.03125 C21.91687988 11.83336914 21.91188477 12.63548828 21.90673828 13.46191406 C21.88853027 14.46963867 21.87032227 15.47736328 21.8515625 16.515625 C21.8103125 19.733125 21.7690625 22.950625 21.7265625 26.265625 C15.1265625 26.265625 8.5265625 26.265625 1.7265625 26.265625 C1.7265625 29.895625 1.7265625 33.525625 1.7265625 37.265625 C4.3665625 37.265625 7.0065625 37.265625 9.7265625 37.265625 C9.7265625 34.955625 9.7265625 32.645625 9.7265625 30.265625 C13.6865625 30.265625 17.6465625 30.265625 21.7265625 30.265625 C22.34045588 39.47402565 22.34045588 39.47402565 19.3515625 43.328125 C14.66771061 46.78525378 11.08706732 46.54783236 5.4140625 46.640625 C4.13112305 46.69669922 4.13112305 46.69669922 2.82226562 46.75390625 C-1.76946892 46.81792734 -3.62802639 46.78758777 -7.31640625 43.8046875 C-7.96222656 42.96679688 -8.60804688 42.12890625 -9.2734375 41.265625 C-9.6034375 40.935625 -9.9334375 40.605625 -10.2734375 40.265625 C-10.39913977 37.87575818 -10.46206445 35.51635324 -10.4765625 33.125 C-10.48226257 32.40580383 -10.48796265 31.68660767 -10.49383545 30.94561768 C-10.50330111 29.41900103 -10.50982562 27.8923638 -10.51367188 26.36572266 C-10.52334029 24.03901926 -10.55433155 21.71321317 -10.5859375 19.38671875 C-10.59247119 17.90365108 -10.59772022 16.42057708 -10.6015625 14.9375 C-10.6139093 14.24460876 -10.6262561 13.55171753 -10.63897705 12.83782959 C-10.61899954 8.46382792 -9.96698531 5.73236462 -7.2734375 2.265625 C-4.18578027 0.20718685 -3.49737798 0.01054107 0 0 Z" transform="translate(151.2734375,300.734375)"/><path fill="#F5F5F5" d="M0 0 C3.15570209 1.28543077 5.43975756 2.87951513 7 6 C7.08698228 8.91699274 7.11551923 11.80982548 7.09765625 14.7265625 C7.0962413 15.58937836 7.09482635 16.45219421 7.09336853 17.34115601 C7.08776188 20.1024723 7.07520827 22.86370812 7.0625 25.625 C7.05748586 27.4947905 7.0529228 29.36458226 7.04882812 31.234375 C7.03779029 35.82294777 7.0205212 40.41146023 7 45 C3.04 45 -0.92 45 -5 45 C-5 33.12 -5 21.24 -5 9 C-7.64 9 -10.28 9 -13 9 C-13 20.88 -13 32.76 -13 45 C-16.96 45 -20.92 45 -25 45 C-25 30.48 -25 15.96 -25 1 C-21.04 1 -17.08 1 -13 1 C-9.05789216 -0.97105392 -4.29634099 -0.45383884 0 0 Z" transform="translate(205,301)"/><path fill="#F3F3F3" d="M0 0 C3.96 0 7.92 0 12 0 C12 2.97 12 5.94 12 9 C14.64 9 17.28 9 20 9 C20 11.97 20 14.94 20 18 C17.36 18 14.72 18 12 18 C12.33 26.91 12.66 35.82 13 45 C15.31 45.33 17.62 45.66 20 46 C20 48.64 20 51.28 20 54 C17.77191841 54.10853983 15.54230068 54.18583307 13.3125 54.25 C12.07113281 54.29640625 10.82976562 54.3428125 9.55078125 54.390625 C5.4303313 53.93733018 3.89212108 52.89748679 1 50 C-0.20887291 47.58225419 -0.12059343 46.06668936 -0.11352539 43.36669922 C-0.11344986 42.40585419 -0.11337433 41.44500916 -0.11329651 40.45504761 C-0.10813522 39.41542877 -0.10297394 38.37580994 -0.09765625 37.3046875 C-0.0962413 36.24210724 -0.09482635 35.17952698 -0.09336853 34.08474731 C-0.08775834 30.68146991 -0.07520409 27.27825762 -0.0625 23.875 C-0.05748631 21.57161553 -0.05292318 19.26823003 -0.04882812 16.96484375 C-0.03778559 11.30987064 -0.02051409 5.65494637 0 0 Z" transform="translate(220,293)"/><path fill="#EAEAEA" d="M0 0 C4.29 0 8.58 0 13 0 C13 14.52 13 29.04 13 44 C8.71 44 4.42 44 0 44 C0 29.48 0 14.96 0 0 Z" transform="translate(247,302)"/><path fill="#0B0B0B" d="M0 0 C2.64 0 5.28 0 8 0 C8 9.9 8 19.8 8 30 C5.36 30 2.72 30 0 30 C0 20.1 0 10.2 0 0 Z" transform="translate(280,309)"/><path fill="#080C22" d="M0 0 C1.65 1.32 3.3 2.64 5 4 C3.78938319 7.14760371 2.69198909 8.24450351 -0.03125 10.40625 C-3.7655173 14.07762438 -3.75483093 17.64785308 -3.8828125 22.703125 C-3.88023437 23.74984375 -3.87765625 24.7965625 -3.875 25.875 C-3.895625 26.94492188 -3.91625 28.01484375 -3.9375 29.1171875 C-3.98443546 31.74557349 -4.00445653 34.37128216 -4 37 C-0.10501586 33.68416794 3.73841424 30.36628711 7.265625 26.65625 C7.76320312 26.13289063 8.26078125 25.60953125 8.7734375 25.0703125 C9.78076353 23.99902926 10.78048024 22.92055236 11.7734375 21.8359375 C13.265625 20.28125 13.265625 20.28125 16 18 C18.25 18.02734375 18.25 18.02734375 20 19 C21.75 21.0625 21.75 21.0625 23 23 C21.68 23 20.36 23 19 23 C19 22.34 19 21.68 19 21 C14.15800124 22.89140577 11.98585347 26.72042995 9 30.78515625 C6.83305757 33.1848757 6.03515789 33.39543603 3 34 C1.47162557 35.37817877 1.47162557 35.37817877 0.25 37.0625 C-0.86375 38.5165625 -0.86375 38.5165625 -2 40 C-2.99 39.67 -3.98 39.34 -5 39 C-5 30.09 -5 21.18 -5 12 C-4.34 12 -3.68 12 -3 12 C-2.896875 11.38125 -2.79375 10.7625 -2.6875 10.125 C-2 8 -2 8 1 6 C0.67 4.02 0.34 2.04 0 0 Z" transform="translate(205,186)"/><path fill="#ECECEC" d="M0 0 C2.375 1.625 2.375 1.625 4 4 C4.5 7.0625 4.5 7.0625 4 10 C1.74827097 12.59814888 0.34982295 12.95716454 -3.0625 13.375 C-6 13 -6 13 -7.875 11.9375 C-9.64273274 8.8930714 -9.36823916 6.4368988 -9 3 C-6.84532543 -0.71082843 -4.00794956 -0.57256422 0 0 Z" transform="translate(256,285)"/><path fill="#9AA8EC" d="M0 0 C0.99 1.32 1.98 2.64 3 4 C1 6 1 6 -1 6.375 C-3.20265017 6.82123176 -3.20265017 6.82123176 -4.25 9.0625 C-4.4975 9.701875 -4.745 10.34125 -5 11 C-5.66 11 -6.32 11 -7 11 C-6.67 15.95 -6.34 20.9 -6 26 C-4.02 24.68 -2.04 23.36 0 22 C0.99 21.34 1.98 20.68 3 20 C3 23 3 23 0.8828125 25.48046875 C-0.02726563 26.37378906 -0.93734375 27.26710937 -1.875 28.1875 C-2.77992188 29.08855469 -3.68484375 29.98960937 -4.6171875 30.91796875 C-7 33 -7 33 -9 33 C-9.23450978 29.33443177 -9.37511221 25.67080904 -9.5 22 C-9.56703125 20.97003906 -9.6340625 19.94007813 -9.703125 18.87890625 C-9.89769078 11.24219931 -9.89769078 11.24219931 -7.21875 7.53515625 C-5.22473689 5.5660683 -3.15177201 3.79122963 -1 2 C-0.67 1.34 -0.34 0.68 0 0 Z" transform="translate(210,190)"/><path fill="#12162C" d="M0 0 C0.99 0.33 1.98 0.66 3 1 C-2 6 -2 6 -4.14746094 7.80566406 C-6.54778498 10.64885232 -6.4657374 12.17886727 -6.390625 15.859375 C-6.37773437 16.97441406 -6.36484375 18.08945312 -6.3515625 19.23828125 C-6.31804687 20.39714844 -6.28453125 21.55601562 -6.25 22.75 C-6.23195312 23.92433594 -6.21390625 25.09867187 -6.1953125 26.30859375 C-6.1481912 29.2065534 -6.08241305 32.10286418 -6 35 C-6.99 35 -7.98 35 -9 35 C-9.22677207 31.43842366 -9.42815479 27.87584575 -9.625 24.3125 C-9.72167969 22.80139648 -9.72167969 22.80139648 -9.8203125 21.25976562 C-9.871875 20.28330078 -9.9234375 19.30683594 -9.9765625 18.30078125 C-10.02893066 17.40528564 -10.08129883 16.50979004 -10.13525391 15.5871582 C-9.82784645 9.70701956 -6.79842834 6.16900671 -3 2 C-2.01 1.34 -1.02 0.68 0 0 Z" transform="translate(205,244)"/><path fill="#0D1129" d="M0 0 C3.60244452 0.30878096 4.99345998 0.99447732 7.8125 3.375 C10 6 10 6 10 9 C11.32 9.33 12.64 9.66 14 10 C14.33 11.32 14.66 12.64 15 14 C15.8971875 14.1546875 15.8971875 14.1546875 16.8125 14.3125 C19.33421352 15.10503854 20.39685699 15.91591409 22 18 C22 18.99 22 19.98 22 21 C23.32 21.33 24.64 21.66 26 22 C25.67 23.32 25.34 24.64 25 26 C21.43645168 22.46109324 17.87614125 18.91897325 14.31884766 15.3737793 C13.10717739 14.16715088 11.89461294 12.96141972 10.68115234 11.7565918 C8.9413478 10.02885937 7.20474035 8.29796998 5.46875 6.56640625 C4.92190552 6.02472305 4.37506104 5.48303986 3.81164551 4.92494202 C2.52197869 3.63546982 1.2580767 2.32031135 0 1 C0 0.67 0 0.34 0 0 Z" transform="translate(207,50)"/><path fill="#868FCA" d="M0 0 C3.74020498 1.68152073 5.56134348 3.69039473 8 7 C7.67 7.66 7.34 8.32 7 9 C5.68 8.67 4.36 8.34 3 8 C2.94581674 10.08304538 2.90712449 12.16649768 2.875 14.25 C2.85179687 15.41015625 2.82859375 16.5703125 2.8046875 17.765625 C2.99074948 20.84681133 3.28304047 22.4785909 5 25 C5.66 25.33 6.32 25.66 7 26 C3.43114507 26 2.49293102 25.4872984 0 23 C-0.45410156 20.5480957 -0.45410156 20.5480957 -0.390625 17.67578125 C-0.37773437 16.64775391 -0.36484375 15.61972656 -0.3515625 14.56054688 C-0.31804687 13.48869141 -0.28453125 12.41683594 -0.25 11.3125 C-0.23195312 10.22904297 -0.21390625 9.14558594 -0.1953125 8.02929688 C-0.14813508 5.35197854 -0.08232249 2.67643091 0 0 Z" transform="translate(198,43)"/><path fill="#111" d="M0 0 C2.64 0 5.28 0 8 0 C8 2.97 8 5.94 8 9 C5.36 9 2.72 9 0 9 C0 6.03 0 3.06 0 0 Z" transform="translate(153,310)"/><path fill="#777FB2" d="M0 0 C2.4375 1.5 2.4375 1.5 5 4 C6.03663382 9.67680423 6.12734692 15.24358895 6.0625 21 C6.05798828 21.77472656 6.05347656 22.54945313 6.04882812 23.34765625 C6.03719758 25.23180524 6.01926906 27.11591365 6 29 C4.02 27.35 2.04 25.7 0 24 C0.99 23.34 1.98 22.68 3 22 C3.40289329 19.70095589 3.40289329 19.70095589 3.25 17.125 C3.23453125 16.26132812 3.2190625 15.39765625 3.203125 14.5078125 C3.01778664 12.21959662 2.55657844 10.21679961 2 8 C2.4375 5.75 2.4375 5.75 3 4 C2.01 3.67 1.02 3.34 0 3 C0 2.01 0 1.02 0 0 Z" transform="translate(182,253)"/><path fill="#8D98D7" d="M0 0 C0.66 0 1.32 0 2 0 C3.49120214 19.59465096 3.49120214 19.59465096 -0.0390625 25.2890625 C-2.5625 27.5625 -2.5625 27.5625 -5.12890625 29.31640625 C-5.74636719 29.87199219 -6.36382812 30.42757812 -7 31 C-6.89066791 33.68598373 -6.89066791 33.68598373 -6 36 C-7.98 35.67 -9.96 35.34 -12 35 C-11.01 34.505 -11.01 34.505 -10 34 C-9.835 32.845 -9.67 31.69 -9.5 30.5 C-9.335 29.345 -9.17 28.19 -9 27 C-8.34 26.67 -7.68 26.34 -7 26 C-6.34 26.33 -5.68 26.66 -5 27 C-4.62875 26.071875 -4.62875 26.071875 -4.25 25.125 C-3 23 -3 23 1 21 C0.67 14.07 0.34 7.14 0 0 Z" transform="translate(182,97)"/><path fill="#9AA4E7" d="M0 0 C0 1.98 0 3.96 0 6 C-0.33 5.34 -0.66 4.68 -1 4 C-6.53601728 8.60136502 -11.39863498 13.46398272 -16 19 C-17.32 18.67 -18.64 18.34 -20 18 C-16.65216306 13.71058392 -13.07554048 10.19975135 -8.9296875 6.6796875 C-7.23544859 5.20494513 -5.67471633 3.68557568 -4.125 2.0625 C-2 0 -2 0 0 0 Z" transform="translate(183,98)"/><path fill="#767EB3" d="M0 0 C0.11597653 3.77057547 0.18717396 7.54069393 0.25 11.3125 C0.30027344 12.9202832 0.30027344 12.9202832 0.3515625 14.56054688 C0.36445313 15.58857422 0.37734375 16.61660156 0.390625 17.67578125 C0.41157227 18.62364502 0.43251953 19.57150879 0.45410156 20.5480957 C0 23 0 23 -2.02441406 24.83276367 C-2.67635742 25.21795166 -3.32830078 25.60313965 -4 26 C-3.84152588 25.42926758 -3.68305176 24.85853516 -3.51977539 24.27050781 C-3.00638657 22.02789812 -2.79834104 19.96682085 -2.68359375 17.671875 C-2.64169922 16.87265625 -2.59980469 16.0734375 -2.55664062 15.25 C-2.51732422 14.425 -2.47800781 13.6 -2.4375 12.75 C-2.37272461 11.48929688 -2.37272461 11.48929688 -2.30664062 10.203125 C-2.20091457 8.13559329 -2.09998705 6.06781719 -2 4 C-3.32 4.99 -4.64 5.98 -6 7 C-6.66 6.67 -7.32 6.34 -8 6 C-7.0479279 4.99403703 -6.08812654 3.99538437 -5.125 3 C-4.59132812 2.443125 -4.05765625 1.88625 -3.5078125 1.3125 C-2 0 -2 0 0 0 Z" transform="translate(188,41)"/><path fill="#8188BB" d="M0 0 C4.01987409 2.00993705 6.14516995 3.93846389 9.25 7.125 C10.14203125 8.03507812 11.0340625 8.94515625 11.953125 9.8828125 C12.62859375 10.58148438 13.3040625 11.28015625 14 12 C12.125 12.625 12.125 12.625 10 13 C7.78986455 10.78986455 5.8752325 8.50031 4 6 C4 5.34 4 4.68 4 4 C3.01 4.495 3.01 4.495 2 5 C1.67 10.94 1.34 16.88 1 23 C0.67 23 0.34 23 0 23 C0 15.41 0 7.82 0 0 Z" transform="translate(195,99)"/><path fill="#1E213F" d="M0 0 C1.65 1.32 3.3 2.64 5 4 C3.78938319 7.14760371 2.69198909 8.24450351 -0.03125 10.40625 C-3.7655173 14.07762438 -3.75483093 17.64785308 -3.8828125 22.703125 C-3.88023437 23.74984375 -3.87765625 24.7965625 -3.875 25.875 C-3.895625 26.94492188 -3.91625 28.01484375 -3.9375 29.1171875 C-3.98443546 31.74557349 -4.00445653 34.37128216 -4 37 C-3.34 37.33 -2.68 37.66 -2 38 C-2.99 38 -3.98 38 -5 38 C-5 29.42 -5 20.84 -5 12 C-4.34 12 -3.68 12 -3 12 C-2.896875 11.38125 -2.79375 10.7625 -2.6875 10.125 C-2 8 -2 8 1 6 C0.67 4.02 0.34 2.04 0 0 Z" transform="translate(205,186)"/><path fill="#2D3250" d="M0 0 C1.65 0.33 3.3 0.66 5 1 C5 8.92 5 16.84 5 25 C4.67 25 4.34 25 4 25 C4 17.74 4 10.48 4 3 C1.36 5.31 -1.28 7.62 -4 10 C-5.32 10.99 -6.64 11.98 -8 13 C-7.67 11.02 -7.34 9.04 -7 7 C-6.01 7.33 -5.02 7.66 -4 8 C-4 7.01 -4 6.02 -4 5 C-3.01 5 -2.02 5 -1 5 C-0.67 3.35 -0.34 1.7 0 0 Z" transform="translate(180,94)"/><path fill="#090B23" d="M0 0 C1.32 0.33 2.64 0.66 4 1 C-1.94 6.94 -7.88 12.88 -14 19 C-14.33 17.68 -14.66 16.36 -15 15 C-11.25 12 -11.25 12 -9 12 C-9 10.68 -9 9.36 -9 8 C-7.68 8 -6.36 8 -5 8 C-4.731875 7.4225 -4.46375 6.845 -4.1875 6.25 C-2.98280141 3.9674132 -1.59201885 2.0262058 0 0 Z" transform="translate(171,52)"/><path fill="#111430" d="M0 0 C5.66129431 4.69766975 10.85228904 9.74723372 16 15 C15.01 15.495 15.01 15.495 14 16 C9.91978658 14.01503131 7.10471482 11.26393096 4 8 C3.236875 7.319375 2.47375 6.63875 1.6875 5.9375 C0 4 0 4 0 0 Z" transform="translate(107,142)"/><path fill="#8692CB" d="M0 0 C0.66 0.33 1.32 0.66 2 1 C2 8.59 2 16.18 2 24 C-1.76687864 22.11656068 -2.79421646 21.30867531 -5 18 C-3.68 18 -2.36 18 -1 18 C-0.505 9.09 -0.505 9.09 0 0 Z" transform="translate(186,143)"/><path fill="#929EDF" d="M0 0 C0.99 0.66 1.98 1.32 3 2 C-1.95 6.95 -6.9 11.9 -12 17 C-12.66 16.01 -13.32 15.02 -14 14 C-12.68 13.34 -11.36 12.68 -10 12 C-10 11.34 -10 10.68 -10 10 C-9.34 10 -8.68 10 -8 10 C-7.34 8.68 -6.68 7.36 -6 6 C-5.01 6 -4.02 6 -3 6 C-2.690625 5.195625 -2.38125 4.39125 -2.0625 3.5625 C-1 1 -1 1 0 0 Z" transform="translate(243,229)"/><path fill="#111531" d="M0 0 C5.66129431 4.69766975 10.85228904 9.74723372 16 15 C15.01 15.495 15.01 15.495 14 16 C9.91978658 14.01503131 7.10471482 11.26393096 4 8 C3.236875 7.319375 2.47375 6.63875 1.6875 5.9375 C0 4 0 4 0 0 Z" transform="translate(155,190)"/><path fill="#111531" d="M0 0 C5.66129431 4.69766975 10.85228904 9.74723372 16 15 C15.01 15.495 15.01 15.495 14 16 C9.91978658 14.01503131 7.10471482 11.26393096 4 8 C3.236875 7.319375 2.47375 6.63875 1.6875 5.9375 C0 4 0 4 0 0 Z" transform="translate(139,174)"/><path fill="#111531" d="M0 0 C5.66129431 4.69766975 10.85228904 9.74723372 16 15 C15.01 15.495 15.01 15.495 14 16 C9.91978658 14.01503131 7.10471482 11.26393096 4 8 C3.236875 7.319375 2.47375 6.63875 1.6875 5.9375 C0 4 0 4 0 0 Z" transform="translate(123,158)"/><path fill="#828CC5" d="M0 0 C0.33 0.99 0.66 1.98 1 3 C0.195625 3.61875 -0.60875 4.2375 -1.4375 4.875 C-4.03874519 6.74164041 -4.03874519 6.74164041 -5 9 C-5.99 9.33 -6.98 9.66 -8 10 C-9.20882096 12.00016466 -9.20882096 12.00016466 -10 14 C-10.99 14 -11.98 14 -13 14 C-13 14.99 -13 15.98 -13 17 C-14.65 17.33 -16.3 17.66 -18 18 C-14.83663828 14.11358417 -11.59585192 10.50122424 -8 7 C-7.1646875 6.1028125 -7.1646875 6.1028125 -6.3125 5.1875 C-5 4 -5 4 -3 4 C-2.67 3.01 -2.34 2.02 -2 1 C-1.34 0.67 -0.68 0.34 0 0 Z" transform="translate(217,236)"/><path fill="#121531" d="M0 0 C5.66129431 4.69766975 10.85228904 9.74723372 16 15 C15.01 15.33 14.02 15.66 13 16 C10.8125 14.75 10.8125 14.75 9 13 C9 12.01 9 11.02 9 10 C8.2575 9.7525 7.515 9.505 6.75 9.25 C3.72742651 7.87610296 2.06022838 6.59436166 0 4 C0 2.68 0 1.36 0 0 Z" transform="translate(171,206)"/><path fill="#929CD4" d="M0 0 C4.53786224 2.26893112 5.94678157 4.09866534 9 8 C6 8 6 8 4 7 C4 6.34 4 5.68 4 5 C3.01 5.495 3.01 5.495 2 6 C2 11.94 2 17.88 2 24 C1.34 23.67 0.68 23.34 0 23 C0 15.41 0 7.82 0 0 Z" transform="translate(200,158)"/><path fill="#171C34" d="M0 0 C5 0 5 0 6.8125 1.3125 C8 3 8 3 8 6 C8.66 6 9.32 6 10 6 C9.67 6.99 9.34 7.98 9 9 C6.36 6.69 3.72 4.38 1 2 C1 9.26 1 16.52 1 24 C0.67 24 0.34 24 0 24 C0 16.08 0 8.16 0 0 Z" transform="translate(197,41)"/><path fill="#8692CB" d="M0 0 C1.485 0.99 1.485 0.99 3 2 C3.34057617 4.24658203 3.34057617 4.24658203 3.29296875 7.0078125 C3.28330078 7.99394531 3.27363281 8.98007813 3.26367188 9.99609375 C3.23853516 11.02863281 3.21339844 12.06117188 3.1875 13.125 C3.17396484 14.16527344 3.16042969 15.20554688 3.14648438 16.27734375 C3.11105228 18.85207627 3.06165221 21.4257833 3 24 C2.34 23.67 1.68 23.34 1 23 C-0.51089043 15.44554787 -0.08989686 7.67119833 0 0 Z" transform="translate(186,198)"/><path fill="#919CDC" d="M0 0 C0.33 0.66 0.66 1.32 1 2 C2.175625 2.185625 2.175625 2.185625 3.375 2.375 C6 3 6 3 7.8125 4.875 C9 7 9 7 9 10 C10.65 10.33 12.3 10.66 14 11 C13.34 12.32 12.68 13.64 12 15 C7.71 10.71 3.42 6.42 -1 2 C-0.67 1.34 -0.34 0.68 0 0 Z" transform="translate(237,161)"/><path fill="#919CDC" d="M0 0 C0.33 0.66 0.66 1.32 1 2 C2.175625 2.185625 2.175625 2.185625 3.375 2.375 C6 3 6 3 7.8125 4.875 C9 7 9 7 9 10 C10.65 10.33 12.3 10.66 14 11 C13.34 12.32 12.68 13.64 12 15 C7.71 10.71 3.42 6.42 -1 2 C-0.67 1.34 -0.34 0.68 0 0 Z" transform="translate(221,145)"/><path fill="#8C97D4" d="M0 0 C0.99 0.33 1.98 0.66 3 1 C-2.28 6.28 -7.56 11.56 -13 17 C-13.33 16.01 -13.66 15.02 -14 14 C-13.34 14 -12.68 14 -12 14 C-11.7525 13.236875 -11.505 12.47375 -11.25 11.6875 C-9.87869328 8.73919055 -8.7648921 7.64165468 -6 6 C-5.34 6 -4.68 6 -4 6 C-3.71125 5.195625 -3.4225 4.39125 -3.125 3.5625 C-2 1 -2 1 0 0 Z" transform="translate(170,78)"/><path fill="#10152E" d="M0 0 C0.33 0.66 0.66 1.32 1 2 C0.67 2.99 0.34 3.98 0 5 C-0.61875 5.28875 -1.2375 5.5775 -1.875 5.875 C-4.68735505 7.36389385 -5.41080781 9.28513001 -7 12 C-9.60205052 14.35023918 -11.62424831 15.23887018 -15 16 C-10.30233025 10.33870569 -5.25276628 5.14771096 0 0 Z" transform="translate(228,248)"/><path fill="#8993D0" d="M0 0 C3.76687864 1.88343932 4.79421646 2.69132469 7 6 C5.68 6.33 4.36 6.66 3 7 C2.67 6.01 2.34 5.02 2 4 C1.2575 4.680625 0.515 5.36125 -0.25 6.0625 C-1.1575 6.701875 -2.065 7.34125 -3 8 C-4.32 7.67 -5.64 7.34 -7 7 C-4.69 4.69 -2.38 2.38 0 0 Z" transform="translate(128,200)"/><path fill="#0D1026" d="M0 0 C0.33 0.66 0.66 1.32 1 2 C1.598125 2.268125 2.19625 2.53625 2.8125 2.8125 C5.67336716 4.36554217 7.03685253 6.42336895 9 9 C10.31494512 10.35147138 11.64264858 11.69112542 13 13 C12.34 13.66 11.68 14.32 11 15 C6.71 10.71 2.42 6.42 -2 2 C-1.34 1.34 -0.68 0.68 0 0 Z" transform="translate(176,184)"/><path fill="#090C24" d="M0 0 C1.32 0.33 2.64 0.66 4 1 C-0.95 5.95 -5.9 10.9 -11 16 C-11.33 15.01 -11.66 14.02 -12 13 C-10.37660195 11.29115995 -8.70680947 9.62553283 -7 8 C-6.34 8 -5.68 8 -5 8 C-4.731875 7.4225 -4.46375 6.845 -4.1875 6.25 C-2.98280141 3.9674132 -1.59201885 2.0262058 0 0 Z" transform="translate(139,84)"/><path fill="#909ADB" d="M0 0 C1.65 0 3.3 0 5 0 C5 0.66 5 1.32 5 2 C5.61875 2.061875 6.2375 2.12375 6.875 2.1875 C9 3 9 3 10.125 5.5 C10.41375 6.325 10.7025 7.15 11 8 C11.66 8.33 12.32 8.66 13 9 C12.67 10.32 12.34 11.64 12 13 C9.99698146 11.0238076 7.99750133 9.04425526 6 7.0625 C5.42765625 6.49853516 4.8553125 5.93457031 4.265625 5.35351562 C2.82474495 3.92121224 1.41012857 2.46258871 0 1 C0 0.67 0 0.34 0 0 Z" transform="translate(156,250)"/><path fill="#0C0F27" d="M0 0 C4.88049925 3.9419417 9.0580583 8.11950075 13 13 C7.25 12.25 7.25 12.25 5 10 C5 8.68 5 7.36 5 6 C3.68 5.67 2.36 5.34 1 5 C1 4.01 1 3.02 1 2 C0.34 1.67 -0.32 1.34 -1 1 C-0.67 0.67 -0.34 0.34 0 0 Z" transform="translate(165,260)"/><path fill="#8B97DA" d="M0 0 C6.35356588 0.70595176 10.2290828 7.36715886 14 12 C13.01 12.495 13.01 12.495 12 13 C12 12.34 12 11.68 12 11 C10.35 11.33 8.7 11.66 7 12 C7 10.68 7 9.36 7 8 C5.03814584 6.28859531 3.03697617 4.62126675 1 3 C0.67 2.01 0.34 1.02 0 0 Z" transform="translate(146,105)"/><path fill="#8791CB" d="M0 0 C4.13621084 3.3810038 7.81316569 6.66590534 11 11 C10.01 11.99 9.02 12.98 8 14 C6 11 6 11 6 7 C5.38125 6.896875 4.7625 6.79375 4.125 6.6875 C2 6 2 6 0 3 C0 2.01 0 1.02 0 0 Z" transform="translate(249,206)"/><path fill="#171C3B" d="M0 0 C0.33 0.66 0.66 1.32 1 2 C0 5 0 5 -2.4375 6.4375 C-5.09448722 7.74661128 -5.09448722 7.74661128 -6 10 C-7.40476526 12.80953052 -9.22284931 13.64529235 -12 15 C-12.99 15 -13.98 15 -15 15 C-10.05 10.05 -5.1 5.1 0 0 Z" transform="translate(244,232)"/><path fill="#10132A" d="M0 0 C0.33 1.32 0.66 2.64 1 4 C-0.23553276 5.20254524 -1.48902339 6.38666232 -2.75 7.5625 C-3.79414063 8.55443359 -3.79414063 8.55443359 -4.859375 9.56640625 C-7 11 -7 11 -9.265625 10.71484375 C-9.83796875 10.47894531 -10.4103125 10.24304688 -11 10 C-10 8 -10 8 -8.3125 7.25 C-4.91092027 5.41130826 -2.66865945 2.78996215 0 0 Z" transform="translate(284,192)"/><path fill="#8F9ADB" d="M0 0 C1.32 0 2.64 0 4 0 C4.66 0.66 5.32 1.32 6 2 C6.66 2 7.32 2 8 2 C8 2.66 8 3.32 8 4 C8.66 4.33 9.32 4.66 10 5 C10.625 8.0625 10.625 8.0625 11 11 C6.86378916 7.6189962 3.18683431 4.33409466 0 0 Z" transform="translate(124,218)"/><path fill="#11162F" d="M0 0 C4.88049925 3.9419417 9.0580583 8.11950075 13 13 C10.1875 12.8125 10.1875 12.8125 7 12 C5.3125 9.625 5.3125 9.625 4 7 C3.46375 6.484375 2.9275 5.96875 2.375 5.4375 C0.7052235 3.69182457 0.50400577 2.32508323 0 0 Z" transform="translate(133,114)"/><path fill="#151934" d="M0 0 C4.91935902 4.11619836 9.52647956 8.40410362 14 13 C13.01 13.33 12.02 13.66 11 14 C8 12 8 12 7 10 C6.34 9.67 5.68 9.34 5 9 C4.67 8.01 4.34 7.02 4 6 C3.01 5.67 2.02 5.34 1 5 C0.67 3.35 0.34 1.7 0 0 Z" transform="translate(215,82)"/><path fill="#8690CA" d="M0 0 C0.99 1.32 1.98 2.64 3 4 C1 6 1 6 -1 6.375 C-3.20265017 6.82123176 -3.20265017 6.82123176 -4.25 9.0625 C-4.4975 9.701875 -4.745 10.34125 -5 11 C-5.99 11 -6.98 11 -8 11 C-8.33 11.99 -8.66 12.98 -9 14 C-8.87535163 9.88660367 -7.3239356 8.07291148 -4.5 5.3125 C-3.8709375 4.73113281 -3.241875 4.14976562 -2.59375 3.55078125 C-0.89864768 2.0715957 -0.89864768 2.0715957 0 0 Z" transform="translate(210,190)"/><path fill="#8A96D6" d="M0 0 C7.48291572 6.15034169 7.48291572 6.15034169 10 10 C8.68 10.33 7.36 10.66 6 11 C4.98805294 9.92781799 3.99081943 8.84173622 3 7.75 C2.443125 7.14671875 1.88625 6.5434375 1.3125 5.921875 C0 4 0 4 0 0 Z" transform="translate(213,116)"/><path fill="#0C0F27" d="M0 0 C1.65 0 3.3 0 5 0 C4.67 0.99 4.34 1.98 4 3 C4 2.34 4 1.68 4 1 C3.48050781 1.45890625 2.96101562 1.9178125 2.42578125 2.390625 C-1.31712166 5.68382608 -5.06978801 8.92952189 -9 12 C-8.40353695 8.65980694 -7.31705841 6.49529367 -5 4 C-4.01 4 -3.02 4 -2 4 C-1.34 2.68 -0.68 1.36 0 0 Z" transform="translate(184,40)"/><path fill="#8A96D5" d="M0 0 C7.48291572 6.15034169 7.48291572 6.15034169 10 10 C8.1875 10.6875 8.1875 10.6875 6 11 C4.25 9.75 4.25 9.75 3 8 C3 7.01 3 6.02 3 5 C2.01 4.67 1.02 4.34 0 4 C0 2.68 0 1.36 0 0 Z" transform="translate(261,164)"/><path fill="#8A96D5" d="M0 0 C7.48291572 6.15034169 7.48291572 6.15034169 10 10 C8.1875 10.6875 8.1875 10.6875 6 11 C4.25 9.75 4.25 9.75 3 8 C3 7.01 3 6.02 3 5 C2.01 4.67 1.02 4.34 0 4 C0 2.68 0 1.36 0 0 Z" transform="translate(245,148)"/><path fill="#8A96D5" d="M0 0 C7.48291572 6.15034169 7.48291572 6.15034169 10 10 C8.1875 10.6875 8.1875 10.6875 6 11 C4.25 9.75 4.25 9.75 3 8 C3 7.01 3 6.02 3 5 C2.01 4.67 1.02 4.34 0 4 C0 2.68 0 1.36 0 0 Z" transform="translate(229,132)"/><path fill="#929CDA" d="M0 0 C0.33 0.66 0.66 1.32 1 2 C4.55692677 2.85056945 6.49270578 3.16909807 10 2 C10 1.34 10 0.68 10 0 C10.99 0.33 11.98 0.66 13 1 C10.69 3.31 8.38 5.62 6 8 C3.69 6.02 1.38 4.04 -1 2 C-0.67 1.34 -0.34 0.68 0 0 Z" transform="translate(249,113)"/><path fill="#131833" d="M0 0 C4.52615993 3.67832017 8.39424999 7.41086363 12 12 C7.72081695 11.51221748 5.9438658 10.40381422 3.1875 7.125 C2.58292969 6.42632812 1.97835937 5.72765625 1.35546875 5.0078125 C0 3 0 3 0 0 Z" transform="translate(168,149)"/><path fill="#D6D6D6" d="M0 0 C0.88816406 0.01353516 1.77632813 0.02707031 2.69140625 0.04101562 C4.87822578 0.07628691 7.06379966 0.12557248 9.25 0.1875 C9.25 0.5175 9.25 0.8475 9.25 1.1875 C7.53103516 1.20876953 7.53103516 1.20876953 5.77734375 1.23046875 C-5.51856967 1.29460216 -5.51856967 1.29460216 -14.75 7.1875 C-14.41011223 4.72331363 -13.90301304 3.37053979 -12.296875 1.44921875 C-8.30122424 -0.53022173 -4.38887 -0.12641501 0 0 Z" transform="translate(283.75,300.8125)"/><path fill="#0E1129" d="M0 0 C1.32 0 2.64 0 4 0 C4 0.66 4 1.32 4 2 C4.598125 2.2475 5.19625 2.495 5.8125 2.75 C8.34094503 4.19482573 9.55070617 5.48280545 11 8 C10.67 8.99 10.34 9.98 10 11 C8.33035479 9.35718838 6.6643536 7.71067239 5 6.0625 C4.071875 5.14597656 3.14375 4.22945312 2.1875 3.28515625 C0 1 0 1 0 0 Z" transform="translate(141,152)"/><path fill="#1B2040" d="M0 0 C0.66 0.33 1.32 0.66 2 1 C1.1875 2.9375 1.1875 2.9375 0 5 C-0.99 5.33 -1.98 5.66 -3 6 C-3 7.65 -3 9.3 -3 11 C-6 11 -6 11 -8 10 C-6.34908222 5.70761377 -3.26245434 3.1206085 0 0 Z" transform="translate(155,95)"/><path fill="#8C98D4" d="M0 0 C4.13621084 3.3810038 7.81316569 6.66590534 11 11 C6.64425364 10.51602818 4.9086741 9.20957142 2 6 C1.34 5.67 0.68 5.34 0 5 C0 3.35 0 1.7 0 0 Z" transform="translate(235,79)"/><path fill="#8C98D4" d="M0 0 C4.13621084 3.3810038 7.81316569 6.66590534 11 11 C8.5625 10.625 8.5625 10.625 6 10 C5.67 9.34 5.34 8.68 5 8 C4.34 7.7525 3.68 7.505 3 7.25 C1 6 1 6 0.25 2.875 C0.1675 1.92625 0.085 0.9775 0 0 Z" transform="translate(219,63)"/><path fill="#939EDE" d="M0 0 C0.99 0.66 1.98 1.32 3 2 C0.03 4.97 -2.94 7.94 -6 11 C-6.66 10.67 -7.32 10.34 -8 10 C-7.34 8.68 -6.68 7.36 -6 6 C-5.01 6 -4.02 6 -3 6 C-2.690625 5.195625 -2.38125 4.39125 -2.0625 3.5625 C-1 1 -1 1 0 0 Z" transform="translate(227,245)"/><path fill="#101431" d="M0 0 C0.99 0.66 1.98 1.32 3 2 C2.67 2.99 2.34 3.98 2 5 C1.34 5 0.68 5 0 5 C0 5.66 0 6.32 0 7 C-1.95927063 8.7143618 -3.95880212 10.38405168 -6 12 C-5.48659616 8.20081162 -4.7920132 6.56865214 -2 4 C-0.82425289 1.90010348 -0.82425289 1.90010348 0 0 Z" transform="translate(233,214)"/><path fill="#8792D1" d="M0 0 C0.8125 1.6875 0.8125 1.6875 1 4 C-1.40123201 7.03685225 -3.06049508 8.72858747 -6.8125 9.8125 C-7.534375 9.874375 -8.25625 9.93625 -9 10 C-8.06409496 8.8944811 -7.12620142 7.79064547 -6.1875 6.6875 C-5.66542969 6.07261719 -5.14335937 5.45773438 -4.60546875 4.82421875 C-3.12827531 3.14575321 -1.59960869 1.56117966 0 0 Z" transform="translate(139,88)"/><path fill="#8E9AD3" d="M0 0 C0.99 0.33 1.98 0.66 3 1 C0.03 3.97 0.03 3.97 -3 7 C-6.16115776 5.63016497 -6.9927092 5.0109362 -9 2 C-6.36 2.33 -3.72 2.66 -1 3 C-0.67 2.01 -0.34 1.02 0 0 Z" transform="translate(279,194)"/><path fill="#161C37" d="M0 0 C0.99 0.33 1.98 0.66 3 1 C1.92173635 2.27513763 0.83714481 3.54492569 -0.25 4.8125 C-0.85328125 5.52019531 -1.4565625 6.22789062 -2.078125 6.95703125 C-3.92370398 8.91889671 -5.79945332 10.45669625 -8 12 C-8 10.68 -8 9.36 -8 8 C-7.01 8 -6.02 8 -5 8 C-5 7.01 -5 6.02 -5 5 C-4.01 5 -3.02 5 -2 5 C-2 4.01 -2 3.02 -2 2 C-1.34 1.34 -0.68 0.68 0 0 Z" transform="translate(221,228)"/><path fill="#949FDE" d="M0 0 C1.32 0.33 2.64 0.66 4 1 C4 1.66 4 2.32 4 3 C4.99 3 5.98 3 7 3 C7 3.66 7 4.32 7 5 C7.66 5 8.32 5 9 5 C9 5.99 9 6.98 9 8 C9.66 8 10.32 8 11 8 C10.67 8.99 10.34 9.98 10 11 C8.33035479 9.35718838 6.6643536 7.71067239 5 6.0625 C4.071875 5.14597656 3.14375 4.22945312 2.1875 3.28515625 C0 1 0 1 0 0 Z" transform="translate(118,152)"/><path fill="#8992C9" d="M0 0 C0.33 0 0.66 0 1 0 C1.16789217 3.27077164 1.33410238 6.54162664 1.5 9.8125 C1.54769531 10.74126953 1.59539062 11.67003906 1.64453125 12.62695312 C1.68964844 13.51962891 1.73476562 14.41230469 1.78125 15.33203125 C1.82314453 16.15421143 1.86503906 16.9763916 1.90820312 17.82348633 C1.98092498 19.54772929 2 21.27422415 2 23 C1.34 23.33 0.68 23.66 0 24 C0 16.08 0 8.16 0 0 Z" transform="translate(198,254)"/><path fill="#090C22" d="M0 0 C2.475 0.99 2.475 0.99 5 2 C5 2.66 5 3.32 5 4 C5.61875 4.04125 6.2375 4.0825 6.875 4.125 C7.57625 4.41375 8.2775 4.7025 9 5 C10.25 8.0625 10.25 8.0625 11 11 C6.86378916 7.6189962 3.18683431 4.33409466 0 0 Z" transform="translate(220,176)"/><path fill="#878EC9" d="M0 0 C1.32 0.66 2.64 1.32 4 2 C3.34 2.66 2.68 3.32 2 4 C1.34 3.67 0.68 3.34 0 3 C-1.485 5.475 -1.485 5.475 -3 8 C-4.32 7.67 -5.64 7.34 -7 7 C-4.69 4.69 -2.38 2.38 0 0 Z" transform="translate(107,120)"/><path fill="#8994D1" d="M0 0 C3.59905908 0.55550695 4.99909799 1.74887248 7.25 4.5625 C8.03117188 5.52349609 8.03117188 5.52349609 8.828125 6.50390625 C9.21484375 6.99761719 9.6015625 7.49132812 10 8 C7.03 7.505 7.03 7.505 4 7 C3.67 6.01 3.34 5.02 3 4 C2.01979625 2.9805881 1.02196992 1.97753644 0 1 C0 0.67 0 0.34 0 0 Z" transform="translate(199,104)"/><path fill="#858FCB" d="M0 0 C0.33 0.66 0.66 1.32 1 2 C-0.87577357 6.06417607 -2.93582393 8.12422643 -7 10 C-7.66 9.67 -8.32 9.34 -9 9 C-6.03 6.03 -3.06 3.06 0 0 Z" transform="translate(155,72)"/><path fill="#8D95C6" d="M0 0 C0.33 0 0.66 0 1 0 C1.03738281 0.77085937 1.07476562 1.54171875 1.11328125 2.3359375 C1.17902344 3.33882812 1.24476563 4.34171875 1.3125 5.375 C1.37050781 6.37273437 1.42851562 7.37046875 1.48828125 8.3984375 C1.65714844 9.25695312 1.82601562 10.11546875 2 11 C2.99 11.66 3.98 12.32 5 13 C3.625 14.5 3.625 14.5 2 16 C1.34 16 0.68 16 0 16 C0 10.72 0 5.44 0 0 Z" transform="translate(201,207)"/><path fill="#949EDE" d="M0 0 C1.32 0.33 2.64 0.66 4 1 C4 1.66 4 2.32 4 3 C6.475 3.99 6.475 3.99 9 5 C9 5.99 9 6.98 9 8 C9.66 8.33 10.32 8.66 11 9 C8 9 8 9 5.95703125 7.28515625 C5.24933594 6.55167969 4.54164063 5.81820312 3.8125 5.0625 C3.09707031 4.33160156 2.38164062 3.60070312 1.64453125 2.84765625 C0 1 0 1 0 0 Z" transform="translate(134,168)"/><path fill="#0F112A" d="M0 0 C5.75 1.75 5.75 1.75 8 4 C8 4.99 8 5.98 8 7 C8.66 7.33 9.32 7.66 10 8 C7 8 7 8 5.17578125 6.50390625 C4.56089844 5.86324219 3.94601563 5.22257812 3.3125 4.5625 C2.68988281 3.92441406 2.06726563 3.28632812 1.42578125 2.62890625 C0 1 0 1 0 0 Z" transform="translate(109,120)"/><path fill="#060924" d="M0 0 C4.24822374 0.47202486 6.19989709 2.96655518 9 6 C8.67 6.99 8.34 7.98 8 9 C6.66368764 7.6905332 5.33102075 6.37734515 4 5.0625 C3.2575 4.33160156 2.515 3.60070312 1.75 2.84765625 C0 1 0 1 0 0 Z" transform="translate(155,225)"/><path fill="#949EDD" d="M0 0 C1.32 0.33 2.64 0.66 4 1 C4 1.66 4 2.32 4 3 C5.2065625 3.3403125 5.2065625 3.3403125 6.4375 3.6875 C7.283125 4.120625 8.12875 4.55375 9 5 C9.8125 7.625 9.8125 7.625 10 10 C2.51708428 3.84965831 2.51708428 3.84965831 0 0 Z" transform="translate(150,184)"/><path fill="#10142B" d="M0 0 C2.31 1.98 4.62 3.96 7 6 C6.34 6.66 5.68 7.32 5 8 C3.02 6.68 1.04 5.36 -1 4 C-0.67 2.68 -0.34 1.36 0 0 Z" transform="translate(161,142)"/><path fill="#141935" d="M0 0 C1.12894876 0.93274109 2.25300876 1.87140122 3.375 2.8125 C4.00148437 3.33457031 4.62796875 3.85664063 5.2734375 4.39453125 C7 6 7 6 9 9 C5.45529741 8.70460812 4.21784705 8.22373481 1.6875 5.625 C0 3 0 3 0 0 Z" transform="translate(152,133)"/><path fill="#161C37" d="M0 0 C7.48291572 6.15034169 7.48291572 6.15034169 10 10 C8.35 9.67 6.7 9.34 5 9 C4.67 8.01 4.34 7.02 4 6 C3.01 5.67 2.02 5.34 1 5 C0.67 3.35 0.34 1.7 0 0 Z" transform="translate(231,98)"/><path fill="#0A0E24" d="M0 0 C0.33 1.32 0.66 2.64 1 4 C-0.6875 6.3125 -0.6875 6.3125 -3 8 C-4.32 7.67 -5.64 7.34 -7 7 C-4.69 4.69 -2.38 2.38 0 0 Z" transform="translate(172,79)"/><path fill="#929EE1" d="M0 0 C2.4375 0.375 2.4375 0.375 5 1 C5.33 1.66 5.66 2.32 6 3 C5.0625 5.125 5.0625 5.125 4 7 C2 5.1875 2 5.1875 0 3 C0 2.01 0 1.02 0 0 Z" transform="translate(144,236)"/><path fill="#111434" d="M0 0 C2.88575819 0.39803561 3.82189513 0.79009069 5.75 3.0625 C6.36875 4.0215625 6.36875 4.0215625 7 5 C5.68 5 4.36 5 3 5 C3 4.34 3 3.68 3 3 C1.02 3.33 -0.96 3.66 -3 4 C-2.01 2.68 -1.02 1.36 0 0 Z" transform="translate(221,204)"/><path fill="#8F97D3" d="M0 0 C1.32 0.99 2.64 1.98 4 3 C3.6875 4.875 3.6875 4.875 3 7 C2.01 7.66 1.02 8.32 0 9 C-1.10844919 5.67465243 -0.84454356 3.37817425 0 0 Z" transform="translate(282,185)"/><path fill="#8F99CF" d="M0 0 C0.33 1.32 0.66 2.64 1 4 C1.66 4 2.32 4 3 4 C3.99 5.485 3.99 5.485 5 7 C4.67 7.99 4.34 8.98 4 10 C2.02 8.02 0.04 6.04 -2 4 C-1.34 2.68 -0.68 1.36 0 0 Z" transform="translate(99,128)"/><path fill="#939FDF" d="M0 0 C3.11954738 0.33724836 4.6209965 0.6209965 6.875 2.875 C7.24625 3.57625 7.6175 4.2775 8 5 C7.67 5.99 7.34 6.98 7 8 C5.83035398 6.8572081 4.66435444 5.71068285 3.5 4.5625 C2.8503125 3.92441406 2.200625 3.28632812 1.53125 2.62890625 C0 1 0 1 0 0 Z" transform="translate(135,115)"/><path fill="#939FE2" d="M0 0 C1.32 0.33 2.64 0.66 4 1 C2.35 2.98 0.7 4.96 -1 7 C-2.32 6.67 -3.64 6.34 -5 6 C-3.35 4.02 -1.7 2.04 0 0 Z" transform="translate(168,110)"/><path fill="#0C1026" d="M0 0 C2.86724686 0.57344937 3.8614515 0.8614515 6 3 C6 3.99 6 4.98 6 6 C6.66 6 7.32 6 8 6 C7.67 6.99 7.34 7.98 7 9 C5.83037314 7.69013727 4.66437056 6.3770374 3.5 5.0625 C2.8503125 4.33160156 2.200625 3.60070313 1.53125 2.84765625 C0 1 0 1 0 0 Z" transform="translate(199,41)"/><path fill="#8D97D9" d="M0 0 C0.66 0.66 1.32 1.32 2 2 C-0.31 4.31 -2.62 6.62 -5 9 C-5.66 8.34 -6.32 7.68 -7 7 C-4.66666667 4.66666667 -2.33333333 2.33333333 0 0 Z" transform="translate(212,210)"/><path fill="#8994D3" d="M0 0 C-3.33333333 2.66666667 -6.66666667 5.33333333 -10 8 C-9.16513153 2.15592068 -5.85032849 -0.6500365 0 0 Z" transform="translate(224,203)"/><path fill="#919FDD" d="M0 0 C0.33 0.66 0.66 1.32 1 2 C1.66 2 2.32 2 3 2 C3 2.99 3 3.98 3 5 C3.99 4.67 4.98 4.34 6 4 C6 5.65 6 7.3 6 9 C4.85073734 8.04578192 3.70569459 7.08647955 2.5625 6.125 C1.92441406 5.59132812 1.28632813 5.05765625 0.62890625 4.5078125 C-1 3 -1 3 -2 1 C-1.34 0.67 -0.68 0.34 0 0 Z" transform="translate(204,181)"/><path fill="#8E99DB" d="M0 0 C2.31 1.98 4.62 3.96 7 6 C6.34 6.66 5.68 7.32 5 8 C5 7.34 5 6.68 5 6 C3.68 6 2.36 6 1 6 C0.67 4.02 0.34 2.04 0 0 Z M-1 6 C-0.34 6 0.32 6 1 6 C1 6.66 1 7.32 1 8 C0.34 8 -0.32 8 -1 8 C-1 7.34 -1 6.68 -1 6 Z" transform="translate(124,136)"/><path fill="#8C98D7" d="M0 0 C1.32 0.33 2.64 0.66 4 1 C2.8572081 2.16964602 1.71068285 3.33564556 0.5625 4.5 C-0.07558594 5.1496875 -0.71367187 5.799375 -1.37109375 6.46875 C-3 8 -3 8 -4 8 C-4 6.35 -4 4.7 -4 3 C-3.01 3.33 -2.02 3.66 -1 4 C-0.67 2.68 -0.34 1.36 0 0 Z" transform="translate(177,70)"/><path fill="#828BC4" d="M0 0 C0 3.70411834 -0.75301769 5.078923 -3 8 C-6.1875 9.3125 -6.1875 9.3125 -9 10 C-8.06409496 8.8944811 -7.12620142 7.79064547 -6.1875 6.6875 C-5.66542969 6.07261719 -5.14335937 5.45773438 -4.60546875 4.82421875 C-3.12827531 3.14575321 -1.59960869 1.56117966 0 0 Z" transform="translate(179,48)"/><path fill="#171C39" d="M0 0 C0.33 0.66 0.66 1.32 1 2 C-0.54442235 5.63393495 -1.48567857 6.78822059 -5.1875 8.3125 C-6.5796875 8.6528125 -6.5796875 8.6528125 -8 9 C-7.04270084 7.87411986 -6.08412105 6.7493285 -5.125 5.625 C-4.59132812 4.99851563 -4.05765625 4.37203125 -3.5078125 3.7265625 C-2.38567993 2.44163349 -1.20628025 1.20628025 0 0 Z" transform="translate(253,223)"/><path fill="#070923" d="M0 0 C3.79588866 0.54226981 5.47211993 2.20127563 8 5 C7.67 5.99 7.34 6.98 7 8 C5.83035398 6.8572081 4.66435444 5.71068285 3.5 4.5625 C2.8503125 3.92441406 2.200625 3.28632813 1.53125 2.62890625 C0 1 0 1 0 0 Z" transform="translate(132,202)"/><path fill="#939FDD" d="M0 0 C1.32 0 2.64 0 4 0 C4 0.66 4 1.32 4 2 C4.66 2 5.32 2 6 2 C6.12375 2.639375 6.2475 3.27875 6.375 3.9375 C6.684375 4.9584375 6.684375 4.9584375 7 6 C7.66 6.33 8.32 6.66 9 7 C6 7 6 7 4.39453125 5.46875 C3.87246094 4.8190625 3.35039062 4.169375 2.8125 3.5 C2.28269531 2.8503125 1.75289062 2.200625 1.20703125 1.53125 C0.80871094 1.0259375 0.41039062 0.520625 0 0 Z" transform="translate(154,134)"/><path fill="#0F1329" d="M0 0 C1.98 1.65 3.96 3.3 6 5 C4.25 5.6875 4.25 5.6875 2 6 C-0.25 4.5625 -0.25 4.5625 -2 3 C-1 1 -1 1 0 0 Z" transform="translate(146,127)"/><path fill="#090C23" d="M0 0 C0.99 0 1.98 0 3 0 C3 0.66 3 1.32 3 2 C1.25 3.7265625 1.25 3.7265625 -1 5.625 C-1.7425 6.25664063 -2.485 6.88828125 -3.25 7.5390625 C-3.8275 8.02117187 -4.405 8.50328125 -5 9 C-5.33 8.01 -5.66 7.02 -6 6 C-5.34 6 -4.68 6 -4 6 C-3.34 4.68 -2.68 3.36 -2 2 C-1.34 2 -0.68 2 0 2 C0 1.34 0 0.68 0 0 Z" transform="translate(106,118)"/><path fill="#131738" d="M0 0 C0.66 0 1.32 0 2 0 C0.8141763 3.37503669 -0.27573689 5.64722731 -3 8 C-3.99 7.67 -4.98 7.34 -6 7 C-5.34 7 -4.68 7 -4 7 C-3.67 5.68 -3.34 4.36 -3 3 C-2.34 3 -1.68 3 -1 3 C-0.67 2.01 -0.34 1.02 0 0 Z" transform="translate(166,109)"/><path fill="#8C98CE" d="M0 0 C1.98 1.65 3.96 3.3 6 5 C4.68 6.32 3.36 7.64 2 9 C1.34 6.03 0.68 3.06 0 0 Z" transform="translate(260,104)"/><path fill="#8993C8" d="M0 0 C1 3 1 3 -0.4375 6.1875 C-1.2109375 7.5796875 -1.2109375 7.5796875 -2 9 C-2.99 8.34 -3.98 7.68 -5 7 C-3.70700306 4.11562221 -2.34058637 2.12780579 0 0 Z" transform="translate(129,98)"/><path fill="#0C0F28" d="M0 0 C0.33 0.99 0.66 1.98 1 3 C-0.65 4.65 -2.3 6.3 -4 8 C-4.99 7.67 -5.98 7.34 -7 7 C-4.69 4.69 -2.38 2.38 0 0 Z" transform="translate(164,87)"/><path fill="#0A0C25" d="M0 0 C1.65 0 3.3 0 5 0 C4.04578192 1.14926266 3.08647955 2.29430541 2.125 3.4375 C1.59132812 4.07558594 1.05765625 4.71367188 0.5078125 5.37109375 C-1 7 -1 7 -3 8 C-2.37240135 5.07120629 -1.41377341 2.63904371 0 0 Z" transform="translate(146,76)"/><path fill="#141932" d="M0 0 C1.14926266 0.95421808 2.29430541 1.91352045 3.4375 2.875 C4.07558594 3.40867187 4.71367187 3.94234375 5.37109375 4.4921875 C7 6 7 6 8 8 C4.89347355 7.6641593 3.39585697 7.40950721 1.1875 5.125 C0 3 0 3 0 0 Z" transform="translate(201,68)"/><path fill="#090E22" d="M0 0 C0.99 0.33 1.98 0.66 3 1 C-1.75 5.875 -1.75 5.875 -4 7 C-3.6875 4.625 -3.6875 4.625 -3 2 C-2.01 1.34 -1.02 0.68 0 0 Z" transform="translate(205,244)"/><path fill="#919DE0" d="M0 0 C1.32 0.33 2.64 0.66 4 1 C0.535 3.97 0.535 3.97 -3 7 C-3.33 6.01 -3.66 5.02 -4 4 C-2.68 3.34 -1.36 2.68 0 2 C0 1.34 0 0.68 0 0 Z" transform="translate(249,223)"/><path fill="#0F1228" d="M0 0 C1.32 0 2.64 0 4 0 C6.1519437 3.22791555 6.20086443 4.28400809 6 8 C5.01 7.67 4.02 7.34 3 7 C2.4375 5.125 2.4375 5.125 2 3 C1.34 2.01 0.68 1.02 0 0 Z" transform="translate(282,184)"/><path fill="#949EDE" d="M0 0 C2.375 0.1875 2.375 0.1875 5 1 C6.1875 3.5 6.1875 3.5 7 6 C7.66 6.33 8.32 6.66 9 7 C6 7 6 7 4.39453125 5.46875 C3.87246094 4.8190625 3.35039063 4.169375 2.8125 3.5 C2.28269531 2.8503125 1.75289063 2.200625 1.20703125 1.53125 C0.80871094 1.0259375 0.41039063 0.520625 0 0 Z" transform="translate(110,144)"/><path fill="#161A34" d="M0 0 C1.14926266 0.95421808 2.29430541 1.91352045 3.4375 2.875 C4.07558594 3.40867188 4.71367188 3.94234375 5.37109375 4.4921875 C7 6 7 6 8 8 C5.125 7.375 5.125 7.375 2 6 C0.625 2.875 0.625 2.875 0 0 Z" transform="translate(99,134)"/><path fill="#8C99D5" d="M0 0 C2.31 1.98 4.62 3.96 7 6 C6.01 6.495 6.01 6.495 5 7 C2.375 6.0625 2.375 6.0625 0 5 C0 3.35 0 1.7 0 0 Z" transform="translate(251,95)"/><path fill="#0C1028" d="M0 0 C0.33 0.66 0.66 1.32 1 2 C-0.125 4.5625 -0.125 4.5625 -2 7 C-4.6875 7.8125 -4.6875 7.8125 -7 8 C-6.02133662 6.85373678 -5.04205413 5.70800212 -4.0625 4.5625 C-3.51722656 3.92441406 -2.97195312 3.28632812 -2.41015625 2.62890625 C-1.63204305 1.73008851 -0.84063472 0.84063472 0 0 Z" transform="translate(180,71)"/><path fill="#848FCA" d="M0 0 C0.33 0.66 0.66 1.32 1 2 C-0.125 4.5625 -0.125 4.5625 -2 7 C-4.6875 7.8125 -4.6875 7.8125 -7 8 C-6.02133662 6.85373678 -5.04205413 5.70800212 -4.0625 4.5625 C-3.51722656 3.92441406 -2.97195312 3.28632812 -2.41015625 2.62890625 C-1.63204305 1.73008851 -0.84063472 0.84063472 0 0 Z" transform="translate(169,58)"/><path fill="#090C28" d="M0 0 C1.32 0.33 2.64 0.66 4 1 C4 1.66 4 2.32 4 3 C5.32 3.33 6.64 3.66 8 4 C7.67 5.32 7.34 6.64 7 8 C5.83035398 6.8572081 4.66435444 5.71068285 3.5 4.5625 C2.8503125 3.92441406 2.200625 3.28632813 1.53125 2.62890625 C0 1 0 1 0 0 Z" transform="translate(170,240)"/><path fill="#959EDD" d="M0 0 C3.37503669 1.1858237 5.64722731 2.27573689 8 5 C7.67 5.99 7.34 6.98 7 8 C5.83035398 6.8572081 4.66435444 5.71068285 3.5 4.5625 C2.8503125 3.92441406 2.200625 3.28632813 1.53125 2.62890625 C0 1 0 1 0 0 Z" transform="translate(176,210)"/><path fill="#949EDD" d="M0 0 C3.37503669 1.1858237 5.64722731 2.27573689 8 5 C7.67 5.99 7.34 6.98 7 8 C5.83035398 6.8572081 4.66435444 5.71068285 3.5 4.5625 C2.8503125 3.92441406 2.200625 3.28632813 1.53125 2.62890625 C0 1 0 1 0 0 Z" transform="translate(168,202)"/><path fill="#94A0E1" d="M0 0 C1.32 0 2.64 0 4 0 C5.0625 1.8125 5.0625 1.8125 6 4 C5.67 4.99 5.34 5.98 5 7 C3.29115995 5.37660195 1.62553283 3.70680947 0 2 C0 1.34 0 0.68 0 0 Z" transform="translate(224,203)"/><path fill="#8B96D1" d="M0 0 C1.32 0.33 2.64 0.66 4 1 C4 1.66 4 2.32 4 3 C5.32 3.33 6.64 3.66 8 4 C7.67 5.32 7.34 6.64 7 8 C5.83035398 6.8572081 4.66435444 5.71068285 3.5 4.5625 C2.8503125 3.92441406 2.200625 3.28632813 1.53125 2.62890625 C0 1 0 1 0 0 Z" transform="translate(250,176)"/><path fill="#090B22" d="M0 0 C2.3125 -0.3125 2.3125 -0.3125 5 0 C6.875 2.375 6.875 2.375 8 5 C7.67 5.66 7.34 6.32 7 7 C5.83040013 6.02433888 4.66438823 5.044375 3.5 4.0625 C2.8503125 3.51722656 2.200625 2.97195312 1.53125 2.41015625 C1.0259375 1.94480469 0.520625 1.47945312 0 1 C0 0.67 0 0.34 0 0 Z" transform="translate(199,156)"/><path fill="#929DDB" d="M0 0 C2.475 0.495 2.475 0.495 5 1 C5 1.99 5 2.98 5 4 C5.66 4 6.32 4 7 4 C7 4.66 7 5.32 7 6 C7.66 6.33 8.32 6.66 9 7 C6 7 6 7 4.39453125 5.46875 C3.87246094 4.8190625 3.35039062 4.169375 2.8125 3.5 C2.28269531 2.8503125 1.75289062 2.200625 1.20703125 1.53125 C0.80871094 1.0259375 0.41039062 0.520625 0 0 Z" transform="translate(170,150)"/><path fill="#929CDC" d="M0 0 C0.99 0.33 1.98 0.66 3 1 C-0.465 3.97 -0.465 3.97 -4 7 C-3.6875 4.625 -3.6875 4.625 -3 2 C-2.01 1.34 -1.02 0.68 0 0 Z" transform="translate(208,265)"/><path fill="#171D3B" d="M0 0 C1 2 1 2 0.4375 4 C-1.57302108 6.79724672 -3.74418077 7.15065585 -7 8 C-6.02133662 6.85373678 -5.04205413 5.70800212 -4.0625 4.5625 C-3.51722656 3.92441406 -2.97195312 3.28632813 -2.41015625 2.62890625 C-1.63204305 1.73008851 -0.84063472 0.84063472 0 0 Z" transform="translate(212,264)"/><path fill="#8B93D4" d="M0 0 C2.02054804 1.64169528 4.02043058 3.30911778 6 5 C6 5.33 6 5.66 6 6 C4.33388095 6.042721 2.66617115 6.04063832 1 6 C0 5 0 5 -0.0625 2.4375 C-0.041875 1.633125 -0.02125 0.82875 0 0 Z" transform="translate(137,208)"/><path fill="#939FE0" d="M0 0 C2.0625 1.75 2.0625 1.75 4 4 C3.75 6.25 3.75 6.25 3 8 C0.52557871 5.84832931 -0.56238367 4.28212246 -1 1 C-0.67 0.67 -0.34 0.34 0 0 Z" transform="translate(258,180)"/><path fill="#191D3C" d="M0 0 C0.33 0.66 0.66 1.32 1 2 C0 5 0 5 -2.4375 6.75 C-3.7059375 7.36875 -3.7059375 7.36875 -5 8 C-5.66 7.67 -6.32 7.34 -7 7 C-4.69 4.69 -2.38 2.38 0 0 Z" transform="translate(228,248)"/><path fill="#0F122F" d="M0 0 C2.31 1.98 4.62 3.96 7 6 C5.68 6.33 4.36 6.66 3 7 C0 2.25 0 2.25 0 0 Z" transform="translate(137,232)"/><path fill="#7E8BC3" d="M0 0 C0.33 0.99 0.66 1.98 1 3 C-0.32 4.32 -1.64 5.64 -3 7 C-3.99 6.67 -4.98 6.34 -6 6 C-4.625 4.5 -4.625 4.5 -3 3 C-2.34 3 -1.68 3 -1 3 C-0.67 2.01 -0.34 1.02 0 0 Z" transform="translate(229,223)"/><path fill="#11142D" d="M0 0 C0.33 1.32 0.66 2.64 1 4 C-1.375 5.5625 -1.375 5.5625 -4 7 C-4.66 6.67 -5.32 6.34 -6 6 C-4.625 4.5 -4.625 4.5 -3 3 C-2.34 3 -1.68 3 -1 3 C-0.67 2.01 -0.34 1.02 0 0 Z" transform="translate(260,216)"/><path fill="#0F1128" d="M0 0 C0.66 0 1.32 0 2 0 C3.38938077 1.96147874 4.7260411 3.96166576 6 6 C4.35 5.67 2.7 5.34 1 5 C0.67 3.35 0.34 1.7 0 0 Z" transform="translate(116,211)"/><path fill="#080A23" d="M0 0 C1.9375 0.375 1.9375 0.375 4 1 C4.33 1.66 4.66 2.32 5 3 C5.99 3.33 6.98 3.66 8 4 C7.67 5.32 7.34 6.64 7 8 C5.83035398 6.8572081 4.66435444 5.71068285 3.5 4.5625 C2.8503125 3.92441406 2.200625 3.28632813 1.53125 2.62890625 C0 1 0 1 0 0 Z" transform="translate(272,174)"/><path fill="#929BDE" d="M0 0 C2 0.9375 2 0.9375 4 3 C4.36475845 6.02534949 4.22893297 8.96663814 4 12 C1.953125 8.28125 1.953125 8.28125 2.375 5.75 C2.58125 5.1725 2.7875 4.595 3 4 C2.01 3.67 1.02 3.34 0 3 C0 2.01 0 1.02 0 0 Z" transform="translate(182,253)"/><path fill="#101331" d="M0 0 C2.31 1.98 4.62 3.96 7 6 C6.01 6.33 5.02 6.66 4 7 C1.23609263 4.59660228 0.95934081 3.83736322 0 0 Z" transform="translate(153,248)"/><path fill="#8691CE" d="M0 0 C0.33 0.99 0.66 1.98 1 3 C-0.8125 4.5625 -0.8125 4.5625 -3 6 C-3.99 5.67 -4.98 5.34 -6 5 C-5.01 4.67 -4.02 4.34 -3 4 C-2.67 3.01 -2.34 2.02 -2 1 C-1.34 0.67 -0.68 0.34 0 0 Z" transform="translate(217,236)"/><path fill="#101330" d="M0 0 C2.31 1.98 4.62 3.96 7 6 C6.01 6.33 5.02 6.66 4 7 C4 6.34 4 5.68 4 5 C3.01 5 2.02 5 1 5 C0.67 3.35 0.34 1.7 0 0 Z" transform="translate(122,217)"/><path fill="#848EC6" d="M0 0 C2.31 1.98 4.62 3.96 7 6 C6.01 6.33 5.02 6.66 4 7 C1.23609263 4.59660228 0.95934081 3.83736322 0 0 Z" transform="translate(239,196)"/><path fill="#161C37" d="M0 0 C2.31 1.98 4.62 3.96 7 6 C6.01 6.33 5.02 6.66 4 7 C1.23609263 4.59660228 0.95934081 3.83736322 0 0 Z" transform="translate(133,114)"/><path fill="#131631" d="M0 0 C2.31 0.66 4.62 1.32 7 2 C7.33 3.65 7.66 5.3 8 7 C6.66382648 6.02471263 5.3311249 5.04466681 4 4.0625 C3.2575 3.51722656 2.515 2.97195312 1.75 2.41015625 C1.1725 1.94480469 0.595 1.47945313 0 1 C0 0.67 0 0.34 0 0 Z" transform="translate(152,109)"/><path fill="#919CDC" d="M0 0 C0.99 0.33 1.98 0.66 3 1 C0.03 3.475 0.03 3.475 -3 6 C-2.625 3.5625 -2.625 3.5625 -2 1 C-1.34 0.67 -0.68 0.34 0 0 Z" transform="translate(217,256)"/><path fill="#8790CB" d="M0 0 C2.02054804 1.64169528 4.02043058 3.30911778 6 5 C6 5.33 6 5.66 6 6 C4.35 6 2.7 6 1 6 C0.67 4.02 0.34 2.04 0 0 Z" transform="translate(159,230)"/><path fill="#070921" d="M0 0 C2.475 0.495 2.475 0.495 5 1 C5.33 2.65 5.66 4.3 6 6 C3.97945196 4.35830472 1.97956942 2.69088222 0 1 C0 0.67 0 0.34 0 0 Z" transform="translate(149,219)"/><path fill="#8D9CDF" d="M0 0 C0.99 1.32 1.98 2.64 3 4 C2.34 4.66 1.68 5.32 1 6 C0.01 6 -0.98 6 -2 6 C-1.49396008 3.83125748 -1.00016187 2.00032373 0 0 Z" transform="translate(210,190)"/><path fill="#8890CB" d="M0 0 C2.02054804 1.64169528 4.02043058 3.30911778 6 5 C6 5.33 6 5.66 6 6 C4.35 6 2.7 6 1 6 C0.67 4.02 0.34 2.04 0 0 Z" transform="translate(271,174)"/><path fill="#060B20" d="M0 0 C2.475 0.495 2.475 0.495 5 1 C5.33 2.65 5.66 4.3 6 6 C3.97945196 4.35830472 1.97956942 2.69088222 0 1 C0 0.67 0 0.34 0 0 Z" transform="translate(262,164)"/><path fill="#8C96D3" d="M0 0 C0.33 0.66 0.66 1.32 1 2 C3.52733235 2.65555119 3.52733235 2.65555119 6 3 C5.34 4.32 4.68 5.64 4 7 C2.35 5.02 0.7 3.04 -1 1 C-0.67 0.67 -0.34 0.34 0 0 Z" transform="translate(237,161)"/><path fill="#8C96D3" d="M0 0 C0.33 0.66 0.66 1.32 1 2 C3.52733235 2.65555119 3.52733235 2.65555119 6 3 C5.34 4.32 4.68 5.64 4 7 C2.35 5.02 0.7 3.04 -1 1 C-0.67 0.67 -0.34 0.34 0 0 Z" transform="translate(221,145)"/><path fill="#101429" d="M0 0 C2.02045442 0.60183749 4.02111039 1.27306096 6 2 C6.33 2.66 6.66 3.32 7 4 C6.34 4.66 5.68 5.32 5 6 C3.35 4.02 1.7 2.04 0 0 Z" transform="translate(118,129)"/><path fill="#060A20" d="M0 0 C2.475 0.495 2.475 0.495 5 1 C5.33 2.65 5.66 4.3 6 6 C3.97945196 4.35830472 1.97956942 2.69088222 0 1 C0 0.67 0 0.34 0 0 Z" transform="translate(213,115)"/><path fill="#141834" d="M0 0 C0.33 0.99 0.66 1.98 1 3 C0.01 4.485 0.01 4.485 -1 6 C-2.32 5.67 -3.64 5.34 -5 5 C-3.35 3.35 -1.7 1.7 0 0 Z" transform="translate(265,110)"/><path fill="#8C99D8" d="M0 0 C1.65 1.65 3.3 3.3 5 5 C3.68 5.33 2.36 5.66 1 6 C0.67 4.02 0.34 2.04 0 0 Z" transform="translate(230,74)"/></svg>